<svg xmlns="http://www.w3.org/2000/svg" viewBox="0 0 909 1566"><defs><style>.cls-1{fill:#9f91da;opacity:0.15;}</style></defs><title>RGroupBig</title><g id="Layer_2" data-name="Layer 2"><g id="Layer_2-2" data-name="Layer 2"><path class="cls-1" d="M909,376.26v738.48q-15.33,15.77-31.94,30.23a527.37,527.37,0,0,1-345.57,130h-2C237.07,1275,0,1037.93,0,745.5S237.07,216,529.5,216A528.29,528.29,0,0,1,909,376.26Z"/><path class="cls-1" d="M909,23.13V401.87A211.54,211.54,0,0,1,812.5,425c-114.62,0-208-90.75-212.34-204.32q-.16-4.06-.16-8.18C600,95.14,695.14,0,812.5,0A211.54,211.54,0,0,1,909,23.13Z"/><circle class="cls-1" cx="705.5" cy="1368.5" r="197.5"/><path class="cls-1" d="M908,1173.36v123.28a105,105,0,0,1-189.86-56.23c-.09-1.79-.14-3.59-.14-5.41a105,105,0,0,1,190-61.64Z"/></g></g></svg>