<svg xmlns="http://www.w3.org/2000/svg" viewBox="0 0 595.37 595.37"><defs><style>.cls-1{opacity:0.15;}.cls-2{fill:#9f91da;}.cls-3{fill:#fff;}.cls-4{fill:none;}</style></defs><title>BiggerCircle</title><g id="Layer_2" data-name="Layer 2"><g id="Layer_1-2" data-name="Layer 1"><g class="cls-1"><path class="cls-2" d="M583.47,215.9a4.92,4.92,0,0,0-.15-.51c-.06-.23-.12-.45-.2-.68A296.79,296.79,0,0,0,509.71,89.46q-.87-.9-1.77-1.8A297,297,0,0,0,323.35,1.6c-.23,0-.46,0-.7-.06l-.52,0Q310,.5,297.68.5A297.14,297.14,0,0,0,.5,297.68c0,164.13,133,297.19,297.18,297.19q11.58,0,22.93-.88a2226150346022.28,2226150346022.28,0,0,1,1-.08,296.15,296.15,0,0,0,187.13-87l1-1q6.7-6.81,13-14.06c.13-.14.25-.29.36-.43a4.3,4.3,0,0,0,.29-.33A297.67,297.67,0,0,0,583.47,215.9ZM509.71,90.18a294.69,294.69,0,0,1,73.08,125,168.74,168.74,0,0,1-73.08,53.39c-.47.19-.94.37-1.42.54l-.35-180.69C508.54,89,509.13,89.57,509.71,90.18ZM484.07,66.81l-195.29-.48A167.91,167.91,0,0,1,323,2.06,293.87,293.87,0,0,1,484.07,66.81ZM297.68,1q12.11,0,24.06,1a168.87,168.87,0,0,0-34,64.37l-175.31-.44A294.49,294.49,0,0,1,297.68,1ZM522.93,490.8a126.59,126.59,0,0,0-13.22-8.38V269.59a169.71,169.71,0,0,0,73.42-53.27,297.52,297.52,0,0,1,11.24,81.36A294.43,294.43,0,0,1,522.93,490.8Z"/><path class="cls-3" d="M583.9,215.35l-.15-.51c-.06-.23-.13-.46-.19-.68A295.91,295.91,0,0,0,509.71,88.74c-.5-.52-1-1-1.53-1.55l-.24-.24q-1.65-1.65-3.32-3.25c-.69-.68-1.39-1.35-2.09-2s-1.25-1.19-1.88-1.77l-1.74-1.61c-.63-.58-1.26-1.16-1.9-1.73s-1.28-1.16-1.92-1.73l-.44-.39c-1.13-1-2.26-2-3.4-3s-2.28-1.94-3.43-2.89q-.54-.46-1.08-.9l-1.08-.89-2.18-1.76c-1.06-.85-2.13-1.7-3.2-2.53a2.92,2.92,0,0,0-.28-.21c-1-.82-2.08-1.62-3.13-2.41-.65-.5-1.32-1-2-1.49l0,0c-1.52-1.14-3.06-2.25-4.6-3.35-.77-.55-1.54-1.1-2.32-1.64s-1.56-1.09-2.34-1.62-1.53-1-2.29-1.56L462,49.37,460,48l-2.72-1.76-2.74-1.72c-.76-.48-1.52-.94-2.28-1.41l-.88-.54q-2.56-1.55-5.15-3-2.8-1.62-5.63-3.17c-.94-.52-1.89-1-2.84-1.54s-1.9-1-2.85-1.5l-.15-.08c-.9-.47-1.81-.93-2.72-1.39l-2.88-1.44c-1-.48-1.93-.95-2.9-1.41s-1.93-.92-2.9-1.38l-1-.45c-1.47-.68-3-1.35-4.45-2-1.13-.5-2.26-1-3.4-1.48q-2.61-1.11-5.24-2.17l-.06,0-2.05-.82,0,0-1.55-.61-.12,0-2.23-.85c-.39-.16-.79-.31-1.19-.45q-2.58-1-5.18-1.88-1.74-.62-3.48-1.2l-2.4-.8-2.41-.78-1.41-.45-2.89-.89q-3.09-.93-6.2-1.8l-3.12-.85-2.45-.64-1-.26L369,8.54l-.29-.07c-1-.26-2.1-.5-3.15-.75q-3.15-.73-6.32-1.39c-1.13-.24-2.27-.47-3.41-.69l-2.38-.46c-.93-.18-1.87-.35-2.8-.51l-1.89-.34c-1.38-.24-2.77-.46-4.16-.68L342,3.26l-2.57-.37-2.54-.34-2.6-.33L332.16,2l-.4,0c-1.57-.18-3.14-.34-4.73-.5-1.08-.11-2.17-.21-3.26-.3l-.71-.06-.52,0q-12.33-1-24.86-1A295.37,295.37,0,0,0,110.86,65.89a302,302,0,0,0-23.67,21.3A297.68,297.68,0,0,0,297.68,595.37q11.54,0,22.93-.87l.5,0,.5,0a295.5,295.5,0,0,0,186.57-86.25l.56-.56c.33-.33.66-.66,1-1q7-7.05,13.39-14.48l.36-.43a4.1,4.1,0,0,0,.28-.33,295.46,295.46,0,0,0,71.63-193.71A299.06,299.06,0,0,0,583.9,215.35ZM522.65,491.13c-.12.14-.24.29-.37.43q-6,7-12.57,13.63c-.31.33-.64.67-1,1l-1.27,1.28a294.42,294.42,0,0,1-185.85,85.95l-.5,0-.51,0q-11.38.87-22.93.87A296.69,296.69,0,0,1,87.89,87.89a300.66,300.66,0,0,1,24.54-22A294.49,294.49,0,0,1,297.68,1q12.11,0,24.06,1l.51,0,.71.06A293.87,293.87,0,0,1,484.07,66.81a301.41,301.41,0,0,1,23.4,21.08l.47.48c.6.6,1.19,1.2,1.77,1.81a294.69,294.69,0,0,1,73.08,125c.07.22.14.45.2.68s.1.34.14.51a297.52,297.52,0,0,1,11.24,81.36A294.43,294.43,0,0,1,522.93,490.8,4.08,4.08,0,0,1,522.65,491.13Z"/><path class="cls-4" d="M594.37,297.68A294.43,294.43,0,0,1,522.93,490.8a126.59,126.59,0,0,0-13.22-8.38V269.59a169.71,169.71,0,0,0,73.42-53.27A297.52,297.52,0,0,1,594.37,297.68Z"/><path class="cls-4" d="M582.79,215.13a168.87,168.87,0,0,1-74.5,53.93l-.35-180.69A295,295,0,0,1,582.79,215.13Z"/><path class="cls-4" d="M484.07,66.81l-195.29-.48A167.91,167.91,0,0,1,323,2.06,293.87,293.87,0,0,1,484.07,66.81Z"/><path class="cls-4" d="M321.74,2a168.87,168.87,0,0,0-34,64.37l-175.31-.44A294.49,294.49,0,0,1,297.68,1Q309.79,1,321.74,2Z"/></g></g></g></svg>