<svg xmlns="http://www.w3.org/2000/svg" viewBox="0 0 866.33 605.74"><defs><style>.cls-1{fill:#ffb8b8;}.cls-2{fill:#3f3d56;}.cls-3{fill:#2f2e41;}.cls-4{fill:#6c63ff;}.cls-5{fill:#e6e6e6;}.cls-6{fill:#fff;}</style></defs><title>calendar</title><g id="Layer_2" data-name="Layer 2"><g id="b954c258-ebd6-43b8-aaa6-ec167673194d"><path class="cls-1" d="M731.47,420.66a9.15,9.15,0,0,1,1.93-13.89l-7.25-31.68L742,381l4.46,29.18a9.2,9.2,0,0,1-15,10.48Z"/><path class="cls-2" d="M730.37,395.51l-13.91-26.88,1.88-67.7.89,1.88c1,2.19,25.44,53.85,23.7,71.14l2.79,15.8Z"/><polygon class="cls-1" points="721.31 594.2 732.46 594.2 737.76 551.19 721.3 551.19 721.31 594.2"/><path class="cls-3" d="M718.46,590.56h22a14,14,0,0,1,14,14V605h-36Z"/><polygon class="cls-1" points="611.13 585.73 621.88 588.71 638.51 548.7 622.65 544.29 611.13 585.73"/><path class="cls-3" d="M609.37,581.46l21.16,5.88h0a14,14,0,0,1,9.73,17.23l-.12.44-34.64-9.63Z"/><path class="cls-3" d="M710.19,577.43l-22.5-161.13-48.6,160.21-38.22-13,54.77-214.53.36,0,57.38-4,41.46,219.49Z"/><path class="cls-4" d="M704.24,273s-20.92-10.91-49.11-6.37c0,0-15,36.21,0,50.62l4.09,36.24s38.2,22.74,50.93-3.64l-1.82-30s9.1-14.39,1.82-24.93A34.82,34.82,0,0,1,704.24,273Z"/><path class="cls-2" d="M706.89,437.86l3.67-76.19L700.17,271l.48-.07c13.63-2.06,18,21.43,18.18,22.43l23.73,134.14Z"/><path class="cls-2" d="M660.63,438.65,618.69,434v-.46c.15-6.21,3.76-152.2,13.87-162.54s29.38-5.9,30.19-5.7l.4.1-3.45,61.78Z"/><path class="cls-1" d="M668.36,351.39A9.15,9.15,0,0,1,656.45,344l-31.89-6.25,11.84-12,28.47,7.78a9.2,9.2,0,0,1,3.49,17.93Z"/><path class="cls-2" d="M651.34,344.08l-10.39-2.23C625.6,346.46,598.82,330.22,588,323c-2-1.36-2.7-4-2-8a23.31,23.31,0,0,1,8.57-13.92l38.12-30.23,9.62-1.61,2.86,16.19-24.29,26.09L656.67,331Z"/><path class="cls-3" d="M647.23,252.94v-21a33.5,33.5,0,0,1,67,0v21a4.51,4.51,0,0,1-4.5,4.5h-58A4.51,4.51,0,0,1,647.23,252.94Z"/><circle class="cls-1" cx="679.38" cy="232.67" r="24.56"/><path class="cls-3" d="M654.14,232.58a2.5,2.5,0,0,1-.59-2l2.91-20.26a2.5,2.5,0,0,1,1.41-1.92c14.85-7,29.91-7,44.76,0a2.52,2.52,0,0,1,1.43,2L706,230.7a2.5,2.5,0,0,1-2.25,2.73H698.6a2.51,2.51,0,0,1-2.27-1.44l-2.13-4.55a1.5,1.5,0,0,0-2.85.45l-.42,3.36a2.5,2.5,0,0,1-2.48,2.19H656A2.5,2.5,0,0,1,654.14,232.58Z"/><rect class="cls-5" y="40.37" width="551" height="343.11"/><rect class="cls-6" x="36.95" y="106.47" width="100.92" height="65.6"/><rect class="cls-6" x="162.34" y="106.47" width="100.92" height="65.6"/><rect class="cls-6" x="287.74" y="106.47" width="100.92" height="65.6"/><rect class="cls-6" x="413.14" y="106.47" width="100.92" height="65.6"/><rect class="cls-6" x="36.95" y="199.31" width="100.92" height="65.6"/><rect class="cls-6" x="162.34" y="199.31" width="100.92" height="65.6"/><rect class="cls-6" x="287.74" y="199.31" width="100.92" height="65.6"/><rect class="cls-6" x="413.14" y="199.31" width="100.92" height="65.6"/><rect class="cls-6" x="36.95" y="292.15" width="100.92" height="65.6"/><rect class="cls-6" x="162.34" y="292.15" width="100.92" height="65.6"/><rect class="cls-6" x="287.74" y="292.15" width="100.92" height="65.6"/><rect class="cls-6" x="413.14" y="292.15" width="100.92" height="65.6"/><circle class="cls-6" cx="144.31" cy="65.6" r="15.14"/><circle class="cls-6" cx="394.58" cy="65.6" r="15.14"/><rect class="cls-5" x="138.25" width="12.11" height="69.63"/><rect class="cls-5" x="388.53" width="12.11" height="69.63"/><path class="cls-4" d="M486.41,139.26a22.76,22.76,0,1,1-3.53-12.19A22.76,22.76,0,0,1,486.41,139.26Z"/><path class="cls-6" d="M482.89,127.07l-22.46,22.46c-1.41-2.19-9.28-12.34-9.28-12.34a31.83,31.83,0,0,1,3.22-2.84l6.52,8.7,19.37-19.37A22.73,22.73,0,0,1,482.89,127.07Z"/><path class="cls-4" d="M235.62,232.11a22.76,22.76,0,1,1-3.53-12.19A22.76,22.76,0,0,1,235.62,232.11Z"/><path class="cls-6" d="M232.1,219.92l-22.46,22.46c-1.41-2.19-9.28-12.34-9.28-12.34a31.83,31.83,0,0,1,3.22-2.84l6.52,8.7,19.37-19.37A22.73,22.73,0,0,1,232.1,219.92Z"/><path class="cls-4" d="M110.23,232.11a22.76,22.76,0,1,1-3.53-12.19A22.76,22.76,0,0,1,110.23,232.11Z"/><path class="cls-6" d="M106.7,219.92,84.24,242.38C82.82,240.19,75,230,75,230a31.83,31.83,0,0,1,3.22-2.84l6.52,8.7,19.37-19.37A22.73,22.73,0,0,1,106.7,219.92Z"/><path class="cls-2" d="M865.33,605.74h-381a1,1,0,0,1,0-2h381a1,1,0,0,1,0,2Z"/></g></g></svg>